<svg xmlns="http://www.w3.org/2000/svg" width="81.668" height="71.267" viewBox="0 0 81.668 71.267"><defs><style>.a{fill:#fbbd08;}</style></defs><g transform="translate(0 0)"><g transform="translate(14.849)"><g transform="translate(0 12.821)"><path class="a" d="M20.464,17.8V34.968h0a8.557,8.557,0,0,0-2.734,5.86,5.341,5.341,0,0,0,.13,1.432L12,46.948V17.8h8.464Z" transform="translate(-12 -17.8)"/></g><g transform="translate(0 45.875)"><path class="a" d="M12,48.831,20.464,41.8V67.061H12Z" transform="translate(-12 -41.8)"/></g><g transform="translate(15.105 21.656)"><path class="a" d="M31.934,23.2V37.654l-.911-.391A8.586,8.586,0,0,0,23.6,29.32V23.2Z" transform="translate(-23.6 -23.2)"/></g><g transform="translate(15.105 43.271)"><path class="a" d="M27.376,39.8l4.557,2.734V67.8H23.6V41.232A9.492,9.492,0,0,0,27.376,39.8Z" transform="translate(-23.6 -39.8)"/></g><g transform="translate(30.209)"><path class="a" d="M43.534,9.8V50.727A9.24,9.24,0,0,0,39.5,52.42l-4.3-2.474V9.8Z" transform="translate(-35.2 -9.8)"/></g><g transform="translate(30.209 49.782)"><path class="a" d="M43.534,52.743V66.155H35.2V44.8l1.042.651A8.3,8.3,0,0,0,43.534,52.743Z" transform="translate(-35.2 -44.8)"/></g><g transform="translate(45.184 21.656)"><path class="a" d="M55.164,23.2V34.268L46.7,41.69V23.2Z" transform="translate(-46.7 -23.2)"/></g><g transform="translate(45.184 43.922)"><path class="a" d="M49.565,45.248,55.034,40.3V67.514H46.7v-15.5a8.486,8.486,0,0,0,2.865-5.99Z" transform="translate(-46.7 -40.3)"/></g></g><path class="a" d="M82.114,26.76a1,1,0,0,0-.651-.26l-9.245,2.083a.6.6,0,0,0-.521.651c0,.26.13.651.391.651l3.386,1.432-.521.391L59.2,45.771a5.348,5.348,0,0,0-3.776-1.693,5.523,5.523,0,0,0-4.948,2.474l-15.1-8.724a1.652,1.652,0,0,1,.13-.781,6.027,6.027,0,0,0-1.432-4.167,5.275,5.275,0,0,0-3.906-1.823,6.142,6.142,0,0,0-4.167,1.563,5.275,5.275,0,0,0-1.823,3.906,7.373,7.373,0,0,0,.391,2.344L9.716,50.98a5.3,5.3,0,0,0-3.125-1.042A5.735,5.735,0,0,0,6.07,61.4h.26a6.28,6.28,0,0,0,3.906-1.432,5.275,5.275,0,0,0,1.823-3.906,6.8,6.8,0,0,0-.521-2.734l14.323-11.98a5.735,5.735,0,0,0,8.073-.781L49.3,49.287v.26a5.735,5.735,0,1,0,11.459.521,6.88,6.88,0,0,0-.13-1.693L76.776,34.052l.651-.521,1.432,3.386a.716.716,0,0,0,.651.391.865.865,0,0,0,.651-.521l1.953-9.375C82.375,27.281,82.244,27.021,82.114,26.76ZM6.33,58.532A2.889,2.889,0,0,1,3.6,55.537,2.984,2.984,0,0,1,6.591,52.8a2.625,2.625,0,0,1,1.432.391A2.85,2.85,0,0,1,9.2,54.5a3.8,3.8,0,0,1,.26,1.172A3.212,3.212,0,0,1,6.33,58.532ZM32.373,36.917a2.156,2.156,0,0,1-.651,1.563,3.165,3.165,0,0,1-2.344,1.172A2.475,2.475,0,0,1,27.685,39a3.371,3.371,0,0,1-.911-1.432c0-.26-.13-.521-.13-.781a2.984,2.984,0,0,1,2.995-2.734,2.633,2.633,0,0,1,2.734,2.865ZM57.895,50.068a2.784,2.784,0,0,1-2.995,2.6,2.925,2.925,0,0,1-2.734-2.344v-.651a1.818,1.818,0,0,1,.391-1.172,2.748,2.748,0,0,1,2.6-1.432,2.9,2.9,0,0,1,2.214,1.172,2.546,2.546,0,0,1,.521,1.823Z" transform="translate(-0.596 -0.547)"/></g></svg>