<svg xmlns="http://www.w3.org/2000/svg" width="70" height="65" viewBox="0 0 70 65"><g fill="none" fill-rule="evenodd"><g fill-rule="nonzero"><g><path fill="#FFC107" d="M68.762 9.438c-.411-.494-1.022-.78-1.662-.78H14.545c-.67 0-1.307.312-1.718.845-.407.537-.546 1.23-.372 1.879l6.926 25.887c.255.952 1.113 1.606 2.09 1.606.036 0 .074 0 .11-.004l41.298-2.078c1-.052 1.84-.784 2.022-1.77l4.329-23.81c.116-.637-.057-1.286-.468-1.775z" transform="translate(-982 -3533) translate(982 3533)"></path><g fill="#FAFAFA"><path d="M28.139 12.988c-1.195 0-2.165-.97-2.165-2.165V2.165c0-1.195.97-2.164 2.165-2.164 1.194 0 2.164.97 2.164 2.164v8.658c0 1.195-.97 2.165-2.164 2.165zM15.152 12.988c-1.195 0-2.165-.97-2.165-2.165V2.165c0-1.195.97-2.164 2.165-2.164 1.194 0 2.164.97 2.164 2.164v8.658c0 1.195-.97 2.165-2.164 2.165zM2.165 12.988C.97 12.988 0 12.018 0 10.823V2.165C0 .97.97.001 2.165.001c1.194 0 2.164.97 2.164 2.164v8.658c0 1.195-.97 2.165-2.164 2.165z" transform="translate(-982 -3533) translate(982 3533) translate(25.974 17.316)"></path></g><g fill="#455A64" transform="translate(-982 -3533) translate(982 3533)"><circle cx="28.139" cy="58.442" r="6.494"></circle><circle cx="54.113" cy="58.442" r="6.494"></circle><path d="M58.442 47.62H23.81c-.983 0-1.84-.658-2.091-1.606L10.589 4.33H2.165C.97 4.33 0 3.36 0 2.165S.97.001 2.165.001H12.25c.983 0 1.84.658 2.091 1.606l11.13 41.684h32.97c1.194 0 2.164.97 2.164 2.164 0 1.195-.97 2.165-2.164 2.165z"></path></g></g></g></g></svg>