<svg xmlns="http://www.w3.org/2000/svg" width="63" height="68" viewBox="0 0 63 68"><g fill="none" fill-rule="evenodd"><g fill-rule="nonzero"><g><path fill="#6D7E8F" d="M27.913 68c-7.88 0-14.29-6.397-14.29-14.26v-1.596c0-.559.453-1.011 1.011-1.011.559 0 1.011.452 1.011 1.01v1.598c0 6.748 5.503 12.237 12.268 12.237 6.764 0 12.268-5.49 12.268-12.237V34.604c0-3.922 3.19-7.112 7.111-7.112h2.828c.558 0 1.011.452 1.011 1.01 0 .559-.453 1.012-1.01 1.012h-2.829c-2.806 0-5.09 2.283-5.09 5.09V53.74c0 7.862-6.41 14.259-14.29 14.259z" transform="translate(-94 -3683) translate(94 3683)"></path><g><path fill="#6D7E8F" d="M26.858 20.377c-.558 0-1.01-.452-1.01-1.01V6.683c0-2.139-1.743-3.878-3.885-3.878h-1.51c-.557 0-1.01-.453-1.01-1.011 0-.559.453-1.011 1.01-1.011h1.51c3.257 0 5.906 2.646 5.906 5.9v12.682c0 .559-.453 1.011-1.011 1.011zM2.223 20.19c-.558 0-1.011-.453-1.011-1.011V6.684c0-3.254 2.65-5.9 5.906-5.9h1.306c.558 0 1.011.452 1.011 1.01 0 .559-.453 1.012-1.01 1.012H7.117c-2.142 0-3.884 1.74-3.884 3.878v12.495c0 .558-.453 1.01-1.011 1.01z" transform="translate(-94 -3683) translate(94 3683)"></path><path fill="#FF5E57" d="M26.858 17.237c-1.167 0-2.113.945-2.113 2.111v8.364c0 5.653-4.633 10.247-10.305 10.192-5.618-.055-10.104-4.71-10.104-10.322v-8.234c0-1.166-.946-2.11-2.113-2.11S.11 18.181.11 19.347v8.205c0 5.33 2.866 10.038 7.152 12.58v5.994c0 4.06 3.307 7.364 7.372 7.364 4.066 0 7.373-3.303 7.373-7.364v-6.085c4.172-2.53 6.964-7.11 6.964-12.33v-8.364c0-1.166-.946-2.11-2.113-2.11zm-9.077 28.89c0 1.733-1.412 3.143-3.147 3.143-1.734 0-3.146-1.41-3.146-3.143v-4.33c.957.21 1.95.323 2.968.328 1.144.007 2.257-.12 3.325-.366v4.368z" transform="translate(-94 -3683) translate(94 3683)"></path><path fill="#F7372F" d="M26.858 17.237c-.953 0-1.759.631-2.022 1.497.06.195.092.4.092.614v8.364c0 4.584-2.154 8.674-5.503 11.316-.915.722-1.461 1.812-1.461 2.977v4.122c0 3.36-2.266 6.2-5.351 7.08.643.184 1.32.284 2.021.284 4.066 0 7.373-3.303 7.373-7.364v-6.085c4.172-2.53 6.964-7.11 6.964-12.33v-8.364c0-1.166-.946-2.11-2.113-2.11z" transform="translate(-94 -3683) translate(94 3683)"></path><g fill="#C2D8ED"><path d="M3.776 3.556H1.848C.865 3.556.069 2.76.069 1.778S.865 0 1.848 0h1.928c.982 0 1.778.796 1.778 1.778s-.796 1.778-1.778 1.778zM12.946 3.556h-1.929c-.982 0-1.778-.796-1.778-1.778S10.035 0 11.017 0h1.929c.982 0 1.778.796 1.778 1.778s-.796 1.778-1.778 1.778z" transform="translate(-94 -3683) translate(94 3683) translate(7.144)"></path></g><g transform="translate(-94 -3683) translate(94 3683) translate(49.467 21.97)"><ellipse cx="6.55" cy="6.526" fill="#C2D8ED" rx="6.482" ry="6.474"></ellipse><path fill="#B4CAE0" d="M6.55.051c-.706 0-1.386.114-2.022.323 2.59.849 4.46 3.281 4.46 6.152 0 2.87-1.87 5.302-4.46 6.151.636.209 1.316.323 2.022.323 3.58 0 6.482-2.899 6.482-6.474C13.032 2.95 10.13.05 6.55.05z"></path><ellipse cx="6.55" cy="6.526" fill="#FF5E57" rx="1.669" ry="1.668"></ellipse></g></g></g></g></g></svg>