<svg xmlns="http://www.w3.org/2000/svg" width="61" height="61" viewBox="0 0 61 61"><g fill="none" fill-rule="evenodd"><g fill-rule="nonzero"><g><path fill="#78B9EB" d="M57.83 1.015H3.044c-1.12.003-2.026.91-2.03 2.029v4.058H59.86V3.044c-.004-1.12-.91-2.026-2.03-2.03zM43.626 45.655L55.8 45.655 55.8 55.8 43.626 55.8zM43.626 28.407L55.8 28.407 55.8 38.553 43.626 38.553zM43.626 11.16L55.8 11.16 55.8 21.306 43.626 21.306zM5.073 11.16V55.8h34.495V19.277H31.45V11.16H5.073zm14.204 40.582H9.13v-8.116h10.146v8.116zm0-12.174H9.13V31.45h10.146v8.117zm0-12.175H9.13v-1.015c0-2.801 2.271-5.072 5.073-5.072-1.681 0-3.044-1.363-3.044-3.044s1.363-3.044 3.044-3.044c1.68 0 3.043 1.363 3.043 3.044 0 1.68-1.362 3.044-3.043 3.044 1.346-.004 2.639.529 3.591 1.48.952.953 1.486 2.246 1.482 3.592v1.015z" transform="translate(-540 -3535) translate(540 3535)"></path><g fill="#1A6FB0"><path d="M57.83 0H3.044C1.363 0 0 1.363 0 3.044V57.83c0 1.68 1.363 3.043 3.044 3.043H57.83c1.68 0 3.043-1.363 3.043-3.043V3.044C60.873 1.363 59.51 0 57.83 0zM3.044 2.03H57.83c.56 0 1.014.453 1.014 1.014v3.043H2.03V3.044c0-.56.454-1.015 1.015-1.015zM57.83 58.843H3.044c-.56 0-1.015-.454-1.015-1.014V8.116h56.815V57.83c0 .56-.454 1.014-1.014 1.014z" transform="translate(-540 -3535) translate(540 3535)"></path><path d="M4.058 3.044L6.087 3.044 6.087 5.073 4.058 5.073zM8.116 3.044L10.146 3.044 10.146 5.073 8.116 5.073zM12.175 3.044L14.204 3.044 14.204 5.073 12.175 5.073zM40.285 18.56l-8.117-8.117c-.19-.188-.449-.292-.717-.288v-.01H5.073c-.56 0-1.015.455-1.015 1.015V55.8c0 .56.454 1.015 1.015 1.015h34.495c.56 0 1.014-.454 1.014-1.015V19.277h-.009c.002-.268-.101-.526-.288-.718zm-7.82-4.95l4.653 4.652h-4.652v-4.653zM6.088 54.785V12.175h24.35v7.102c0 .56.454 1.014 1.014 1.014h7.102v34.495H6.087z" transform="translate(-540 -3535) translate(540 3535)"></path><path d="M17.139 21.049c1.53-1.603 1.492-4.139-.088-5.694-1.58-1.556-4.115-1.556-5.695 0-1.58 1.555-1.618 4.09-.087 5.694-1.944 1.07-3.151 3.111-3.153 5.33v1.014c0 .56.455 1.014 1.015 1.014h10.146c.56 0 1.014-.454 1.014-1.014v-1.015c-.001-2.218-1.209-4.26-3.152-5.33zm-4.964-2.787c0-1.12.908-2.03 2.029-2.03 1.12 0 2.029.91 2.029 2.03 0 1.12-.909 2.03-2.03 2.03-1.12 0-2.028-.91-2.028-2.03zm-2.03 8.116c0-2.24 1.817-4.058 4.059-4.058 2.241 0 4.058 1.817 4.058 4.058h-8.116zM19.277 30.437H9.13c-.56 0-1.015.454-1.015 1.014v8.117c0 .56.455 1.014 1.015 1.014h10.146c.56 0 1.014-.454 1.014-1.014V31.45c0-.56-.454-1.014-1.014-1.014zm-1.015 8.116h-8.116v-6.087h8.116v6.087zM19.277 42.611H9.13c-.56 0-1.015.454-1.015 1.015v8.116c0 .56.455 1.015 1.015 1.015h10.146c.56 0 1.014-.454 1.014-1.015v-8.116c0-.56-.454-1.015-1.014-1.015zm-1.015 8.117h-8.116V44.64h8.116v6.088zM22.32 32.466L24.349 32.466 24.349 34.495 22.32 34.495zM26.378 32.466L36.524 32.466 36.524 34.495 26.378 34.495zM22.32 36.524L24.349 36.524 24.349 38.553 22.32 38.553zM26.378 36.524L36.524 36.524 36.524 38.553 26.378 38.553zM22.32 44.64L24.349 44.64 24.349 46.669 22.32 46.669zM26.378 44.64L36.524 44.64 36.524 46.669 26.378 46.669zM22.32 48.699L24.349 48.699 24.349 50.728 22.32 50.728zM26.378 48.699L36.524 48.699 36.524 50.728 26.378 50.728zM22.32 26.378L24.349 26.378 24.349 28.407 22.32 28.407zM26.378 26.378L36.524 26.378 36.524 28.407 26.378 28.407zM22.32 22.32L24.349 22.32 24.349 24.349 22.32 24.349zM26.378 22.32L36.524 22.32 36.524 24.349 26.378 24.349zM22.32 18.262L24.349 18.262 24.349 20.291 22.32 20.291zM26.378 18.262L28.407 18.262 28.407 20.291 26.378 20.291zM55.8 10.146H43.626c-.56 0-1.015.454-1.015 1.014v10.146c0 .56.454 1.014 1.015 1.014H55.8c.56 0 1.015-.454 1.015-1.014V11.16c0-.56-.454-1.014-1.015-1.014zM54.786 20.29H44.64v-8.116h10.146v8.116zM55.8 27.393H43.626c-.56 0-1.015.454-1.015 1.014v10.146c0 .56.454 1.015 1.015 1.015H55.8c.56 0 1.015-.455 1.015-1.015V28.407c0-.56-.454-1.014-1.015-1.014zm-1.014 10.145H44.64v-8.116h10.146v8.116zM55.8 44.64H43.626c-.56 0-1.015.455-1.015 1.015V55.8c0 .56.454 1.015 1.015 1.015H55.8c.56 0 1.015-.454 1.015-1.015V45.655c0-.56-.454-1.015-1.015-1.015zm-1.014 10.146H44.64v-8.117h10.146v8.117z" transform="translate(-540 -3535) translate(540 3535)"></path></g></g></g></g></svg>