<svg xmlns="http://www.w3.org/2000/svg" width="66" height="66" viewBox="0 0 66 66"><g fill="none" fill-rule="evenodd"><g fill-rule="nonzero"><g><path fill="#FFDA45" d="M2.023 12.433L51.717 12.433 51.717 26.259 2.023 26.259z" transform="translate(-89 -3532) translate(89 3532)"></path><path fill="#FAC800" d="M46.176 12.433L51.717 12.433 51.717 26.259 46.176 26.259z" transform="translate(-89 -3532) translate(89 3532)"></path><path fill="#FFF5F5" d="M30.519 12.433L46.241 12.433 46.241 26.259 30.519 26.259z" transform="translate(-89 -3532) translate(89 3532)"></path><g><g><g><path fill="#F0F5FA" d="M57.624 15.679H8.312c-4.033 0-7.302-3.27-7.302-7.303 0-4.033 3.269-7.302 7.302-7.302h49.312v14.605z" transform="translate(-89 -3532) translate(89 3532) translate(4.381 49.226)"></path><path fill="#E4ECF2" d="M52.469 1.074L57.624 1.074 57.624 15.679 52.469 15.679z" transform="translate(-89 -3532) translate(89 3532) translate(4.381 49.226)"></path><path fill="#6E9EFF" d="M60.201 16.645H8.311c-4.558 0-8.268-3.71-8.268-8.269 0-4.56 3.71-8.269 8.269-8.269h51.89c.533 0 .966.433.966.967s-.433.966-.967.966H8.311c-3.493 0-6.335 2.843-6.335 6.336 0 3.494 2.842 6.336 6.336 6.336h51.89c.533 0 .966.433.966.967 0 .533-.433.966-.967.966z" transform="translate(-89 -3532) translate(89 3532) translate(4.381 49.226)"></path><g fill="#C5D7E6"><path d="M40.872 2.012H1.064c-.534 0-.966-.433-.966-.967C.098.512.53.08 1.064.08h39.808v1.933zM40.872 6.88H11.634c-.534 0-.967-.433-.967-.966 0-.534.433-.967.967-.967h29.238V6.88z" transform="translate(-89 -3532) translate(89 3532) translate(4.381 49.226) translate(16.752 4.897)"></path></g></g><g><path fill="#F0F5FA" d="M53.74 10.487H5.757c-2.61 0-4.726-2.116-4.726-4.726s2.116-4.726 4.726-4.726H53.74v9.452z" transform="translate(-89 -3532) translate(89 3532) translate(0 37.886)"></path><path fill="#E4ECF2" d="M48.585 1.035L53.74 1.035 53.74 10.487 48.585 10.487z" transform="translate(-89 -3532) translate(89 3532) translate(0 37.886)"></path><path fill="#74D84B" d="M56.697 11.453H5.757C2.618 11.453.065 8.9.065 5.761.065 2.62 2.618.068 5.757.068h50.94c.533 0 .966.433.966.967 0 .533-.433.966-.966.966H5.757c-2.073 0-3.76 1.687-3.76 3.76 0 2.073 1.687 3.76 3.76 3.76h50.94c.533 0 .966.432.966.966 0 .533-.433.966-.966.966z" transform="translate(-89 -3532) translate(89 3532) translate(0 37.886)"></path><path fill="#C5D7E6" d="M53.74 6.928H40.17c-.534 0-.967-.433-.967-.967 0-.533.433-.966.967-.966H53.74v1.933z" transform="translate(-89 -3532) translate(89 3532) translate(0 37.886)"></path></g><g><path fill="#F0F5FA" d="M4.258.966h38.514c2.9 0 5.25 2.351 5.25 5.25 0 2.9-2.35 5.25-5.25 5.25H4.258V.966z" transform="translate(-89 -3532) translate(89 3532) translate(12.758)"></path><path fill="#E4ECF2" d="M42.772.966h-5.154c2.899 0 5.25 2.351 5.25 5.25 0 2.9-2.351 5.25-5.25 5.25h5.154c2.9 0 5.25-2.35 5.25-5.25 0-2.899-2.35-5.25-5.25-5.25z" transform="translate(-89 -3532) translate(89 3532) translate(12.758)"></path><path fill="#FC435F" d="M42.772 12.433H.974c-.534 0-.966-.433-.966-.967S.44 10.5.974 10.5h41.798c2.362 0 4.283-1.922 4.283-4.284 0-2.361-1.921-4.283-4.283-4.283H.974C.44 1.933.008 1.5.008.966.008.433.44 0 .974 0h41.798c3.428 0 6.216 2.789 6.216 6.216 0 3.428-2.788 6.217-6.216 6.217z" transform="translate(-89 -3532) translate(89 3532) translate(12.758)"></path></g><g><path fill="#6E9EFF" d="M0.013 0.099L57.474 0.099 57.474 11.795 0.013 11.795z" transform="translate(-89 -3532) translate(89 3532) translate(7.603 26.16)"></path><path fill="#BF6930" d="M39.927 0.099L57.474 0.099 57.474 11.795 39.927 11.795z" transform="translate(-89 -3532) translate(89 3532) translate(7.603 26.16)"></path><path fill="#AD5F2C" d="M52.319 0.099L57.474 0.099 57.474 11.795 52.319 11.795z" transform="translate(-89 -3532) translate(89 3532) translate(7.603 26.16)"></path><path fill="#FFF5F5" d="M19.78 7.88H6.636c-1.067 0-1.932-.865-1.932-1.933 0-1.067.865-1.933 1.932-1.933h13.146c1.067 0 1.933.866 1.933 1.933 0 1.068-.866 1.933-1.933 1.933zM51.89 6.914h-6.293c-.534 0-.967-.433-.967-.967s.433-.966.967-.966h6.292c.534 0 .967.432.967.966s-.433.967-.967.967z" transform="translate(-89 -3532) translate(89 3532) translate(7.603 26.16)"></path></g><g fill="#677A8F"><path d="M8.011 4.376c-.534 0-.966-.433-.966-.967V1.004c0-.533.432-.966.966-.966s.967.433.967.966V3.41c0 .534-.433.967-.967.967zM4.489 4.376c-.534 0-.967-.433-.967-.967V1.004c0-.533.433-.966.967-.966s.966.433.966.966V3.41c0 .534-.432.967-.966.967zM.967 4.376C.433 4.376 0 3.943 0 3.409V1.004C0 .471.433.038.967.038c.533 0 .966.433.966.966V3.41c0 .534-.433.967-.966.967z" transform="translate(-89 -3532) translate(89 3532) translate(33.891 17.139)"></path></g></g><path fill="#C5D7E6" d="M16.989 5.25h22.053c.534 0 .967.433.967.966 0 .534-.433.967-.967.967H16.99V5.25z" transform="translate(-89 -3532) translate(89 3532)"></path></g></g></g></g></svg>