<svg xmlns="http://www.w3.org/2000/svg" width="63.564" height="71.25" viewBox="0 0 63.564 71.25"><defs><style>.a{fill:#6435c9;}</style></defs><path class="a" d="M554.232,409.934c-.819-2.716-2.7-8.7-3.748-10.19-3.694-5.232-12.228-10.863-22.235-10.863a27.158,27.158,0,0,0-19.468,8.282,28.486,28.486,0,0,0-8.232,19.6,28.019,28.019,0,0,0,2.924,12.994,28.614,28.614,0,0,0,7.352,9.28v21.094h30.517V448.324h4.906a10.98,10.98,0,0,0,10.968-10.966V431.5l6.9-2.895Zm-1.192,18.788v8.636a6.8,6.8,0,0,1-6.792,6.792h-9.081v11.807H515V437l-.816-.627a24.4,24.4,0,0,1-6.971-8.474,23.915,23.915,0,0,1-2.49-11.078,24.327,24.327,0,0,1,7.034-16.735,23.013,23.013,0,0,1,16.491-7.036,24.558,24.558,0,0,1,11.421,2.915,21.657,21.657,0,0,1,7.4,6.176,72.5,72.5,0,0,1,3.224,9.185l.058.2,7.935,14.994Z" transform="translate(-500.546 -388.881)"/><path class="a" d="M537.506,409.241l3.485-3.484-3.286-3.286-3.489,3.49a11.717,11.717,0,0,0-4.208-1.744v-4.923H525.36v4.928a11.738,11.738,0,0,0-4.2,1.754l-3.485-3.485-3.285,3.285,3.489,3.489a11.726,11.726,0,0,0-1.742,4.21h-4.924v4.646h4.928a11.746,11.746,0,0,0,1.754,4.206l-3.485,3.485,3.285,3.285,3.49-3.489a11.737,11.737,0,0,0,4.209,1.742v4.923h4.646v-4.928a11.733,11.733,0,0,0,4.206-1.753l3.485,3.485,3.285-3.286-3.489-3.489a11.718,11.718,0,0,0,1.742-4.21h4.923v-4.646h-4.928A11.743,11.743,0,0,0,537.506,409.241ZM527.7,422.932a7.148,7.148,0,1,1,7.149-7.148A7.156,7.156,0,0,1,527.7,422.932Z" transform="translate(-500.071 -388.197)"/></svg>